<svg xmlns="http://www.w3.org/2000/svg" xmlns:xlink="http://www.w3.org/1999/xlink" version="1.1" id="Layer_1" x="0px" y="0px" width="100px" height="100px" viewBox="5.0 -10.0 100.0 135.0" style="enable-background:new 0 0 100 100;" xml:space="preserve">
<g>
	<path d="M85.311,20.695H14.691c-1.861,0-3.383,1.52-3.383,3.385v51.84c0,1.857,1.521,3.385,3.383,3.385h70.619   c1.859,0,3.381-1.527,3.381-3.385V24.08C88.691,22.215,87.17,20.695,85.311,20.695z M81.355,28.033v8.279H18.644v-8.279H81.355z    M18.644,71.967V48.51h62.712v23.457H18.644z"/>
	<rect x="46.605" y="58.988" width="6.111" height="5.287"/>
	<rect x="35.192" y="58.988" width="6.113" height="5.287"/>
	<rect x="23.885" y="58.988" width="6.111" height="5.287"/>
</g>
<text x="0.0" y="117.5" font-size="5.0" font-weight="bold" font-family="Helvetica Neue, Helvetica, Arial-Unicode, Arial, Sans-serif" fill="#000000">Created by Mike Rowe</text><text x="0.0" y="122.5" font-size="5.0" font-weight="bold" font-family="Helvetica Neue, Helvetica, Arial-Unicode, Arial, Sans-serif" fill="#000000">from the Noun Project</text></svg>